<mxfile host="Electron" agent="Mozilla/5.0 (Windows NT 10.0; Win64; x64) AppleWebKit/537.36 (KHTML, like Gecko) draw.io/26.0.9 Chrome/128.0.6613.186 Electron/32.2.5 Safari/537.36" version="26.0.9">
  <diagram name="Page-1" id="uYW5luOSpXRmxv9xuqUU">
    <mxGraphModel dx="562" dy="709" grid="1" gridSize="10" guides="1" tooltips="1" connect="1" arrows="1" fold="1" page="1" pageScale="1" pageWidth="827" pageHeight="1169" math="0" shadow="0">
      <root>
        <mxCell id="0" />
        <mxCell id="1" parent="0" />
        <mxCell id="6YbyLl6E95-JAUoDLxdt-5" value="Tutor" style="swimlane;fontStyle=1;align=center;verticalAlign=top;childLayout=stackLayout;horizontal=1;startSize=26;horizontalStack=0;resizeParent=1;resizeParentMax=0;resizeLast=0;collapsible=1;marginBottom=0;whiteSpace=wrap;html=1;" parent="1" vertex="1">
          <mxGeometry x="10" y="70" width="160" height="178" as="geometry" />
        </mxCell>
        <mxCell id="6YbyLl6E95-JAUoDLxdt-6" value="&lt;div&gt;CPF (PK) INT&lt;/div&gt;&lt;div&gt;Nome: String&lt;/div&gt;&lt;div&gt;E-mail: String&lt;/div&gt;&lt;div&gt;Endereço: String&lt;/div&gt;&lt;div&gt;Telefone: String&lt;/div&gt;" style="text;strokeColor=none;fillColor=none;align=left;verticalAlign=top;spacingLeft=4;spacingRight=4;overflow=hidden;rotatable=0;points=[[0,0.5],[1,0.5]];portConstraint=eastwest;whiteSpace=wrap;html=1;" parent="6YbyLl6E95-JAUoDLxdt-5" vertex="1">
          <mxGeometry y="26" width="160" height="84" as="geometry" />
        </mxCell>
        <mxCell id="6YbyLl6E95-JAUoDLxdt-7" value="" style="line;strokeWidth=1;fillColor=none;align=left;verticalAlign=middle;spacingTop=-1;spacingLeft=3;spacingRight=3;rotatable=0;labelPosition=right;points=[];portConstraint=eastwest;strokeColor=inherit;" parent="6YbyLl6E95-JAUoDLxdt-5" vertex="1">
          <mxGeometry y="110" width="160" height="8" as="geometry" />
        </mxCell>
        <mxCell id="6YbyLl6E95-JAUoDLxdt-8" value="&lt;div&gt;consultarPets()&lt;/div&gt;&lt;div&gt;adicionarPet()&lt;/div&gt;&lt;div&gt;atualizarPet()&lt;/div&gt;" style="text;strokeColor=none;fillColor=none;align=left;verticalAlign=top;spacingLeft=4;spacingRight=4;overflow=hidden;rotatable=0;points=[[0,0.5],[1,0.5]];portConstraint=eastwest;whiteSpace=wrap;html=1;" parent="6YbyLl6E95-JAUoDLxdt-5" vertex="1">
          <mxGeometry y="118" width="160" height="60" as="geometry" />
        </mxCell>
        <mxCell id="6YbyLl6E95-JAUoDLxdt-31" value="Pet" style="swimlane;fontStyle=1;align=center;verticalAlign=top;childLayout=stackLayout;horizontal=1;startSize=26;horizontalStack=0;resizeParent=1;resizeParentMax=0;resizeLast=0;collapsible=1;marginBottom=0;whiteSpace=wrap;html=1;" parent="1" vertex="1">
          <mxGeometry x="490" y="70" width="160" height="160" as="geometry" />
        </mxCell>
        <mxCell id="6YbyLl6E95-JAUoDLxdt-32" value="&lt;div&gt;idPet (PK) INT&lt;/div&gt;&lt;div&gt;cpfTutor INT&lt;/div&gt;&lt;div&gt;dataNascimento: Date&lt;/div&gt;&lt;div&gt;Tipo: String&lt;/div&gt;&lt;div&gt;Nome: String&lt;/div&gt;" style="text;strokeColor=none;fillColor=none;align=left;verticalAlign=top;spacingLeft=4;spacingRight=4;overflow=hidden;rotatable=0;points=[[0,0.5],[1,0.5]];portConstraint=eastwest;whiteSpace=wrap;html=1;" parent="6YbyLl6E95-JAUoDLxdt-31" vertex="1">
          <mxGeometry y="26" width="160" height="84" as="geometry" />
        </mxCell>
        <mxCell id="6YbyLl6E95-JAUoDLxdt-33" value="" style="line;strokeWidth=1;fillColor=none;align=left;verticalAlign=middle;spacingTop=-1;spacingLeft=3;spacingRight=3;rotatable=0;labelPosition=right;points=[];portConstraint=eastwest;strokeColor=inherit;" parent="6YbyLl6E95-JAUoDLxdt-31" vertex="1">
          <mxGeometry y="110" width="160" height="8" as="geometry" />
        </mxCell>
        <mxCell id="6YbyLl6E95-JAUoDLxdt-34" value="registrarConsulta()" style="text;strokeColor=none;fillColor=none;align=left;verticalAlign=top;spacingLeft=4;spacingRight=4;overflow=hidden;rotatable=0;points=[[0,0.5],[1,0.5]];portConstraint=eastwest;whiteSpace=wrap;html=1;" parent="6YbyLl6E95-JAUoDLxdt-31" vertex="1">
          <mxGeometry y="118" width="160" height="42" as="geometry" />
        </mxCell>
        <mxCell id="6YbyLl6E95-JAUoDLxdt-35" value="Consulta" style="swimlane;fontStyle=1;align=center;verticalAlign=top;childLayout=stackLayout;horizontal=1;startSize=26;horizontalStack=0;resizeParent=1;resizeParentMax=0;resizeLast=0;collapsible=1;marginBottom=0;whiteSpace=wrap;html=1;" parent="1" vertex="1">
          <mxGeometry x="500" y="550" width="160" height="160" as="geometry" />
        </mxCell>
        <mxCell id="6YbyLl6E95-JAUoDLxdt-36" value="&lt;div&gt;idConsulta (PK) INT&lt;/div&gt;&lt;div&gt;dataConsulta: Date&lt;/div&gt;&lt;div&gt;motivoConsulta: String&lt;/div&gt;&lt;div&gt;idPet (FK) INT&lt;/div&gt;&lt;div&gt;idVeterinario (FK) INT&lt;/div&gt;&lt;div&gt;Relatório: String&lt;/div&gt;" style="text;strokeColor=none;fillColor=none;align=left;verticalAlign=top;spacingLeft=4;spacingRight=4;overflow=hidden;rotatable=0;points=[[0,0.5],[1,0.5]];portConstraint=eastwest;whiteSpace=wrap;html=1;" parent="6YbyLl6E95-JAUoDLxdt-35" vertex="1">
          <mxGeometry y="26" width="160" height="94" as="geometry" />
        </mxCell>
        <mxCell id="6YbyLl6E95-JAUoDLxdt-37" value="" style="line;strokeWidth=1;fillColor=none;align=left;verticalAlign=middle;spacingTop=-1;spacingLeft=3;spacingRight=3;rotatable=0;labelPosition=right;points=[];portConstraint=eastwest;strokeColor=inherit;" parent="6YbyLl6E95-JAUoDLxdt-35" vertex="1">
          <mxGeometry y="120" width="160" height="8" as="geometry" />
        </mxCell>
        <mxCell id="6YbyLl6E95-JAUoDLxdt-38" value="&lt;div&gt;registrarConsulta()&lt;/div&gt;&lt;div&gt;&lt;br&gt;&lt;/div&gt;" style="text;strokeColor=none;fillColor=none;align=left;verticalAlign=top;spacingLeft=4;spacingRight=4;overflow=hidden;rotatable=0;points=[[0,0.5],[1,0.5]];portConstraint=eastwest;whiteSpace=wrap;html=1;" parent="6YbyLl6E95-JAUoDLxdt-35" vertex="1">
          <mxGeometry y="128" width="160" height="32" as="geometry" />
        </mxCell>
        <mxCell id="6YbyLl6E95-JAUoDLxdt-42" style="edgeStyle=orthogonalEdgeStyle;rounded=0;orthogonalLoop=1;jettySize=auto;html=1;entryX=0;entryY=0.631;entryDx=0;entryDy=0;entryPerimeter=0;endArrow=none;endFill=0;" parent="1" source="6YbyLl6E95-JAUoDLxdt-5" target="6YbyLl6E95-JAUoDLxdt-32" edge="1">
          <mxGeometry relative="1" as="geometry">
            <Array as="points">
              <mxPoint x="330" y="150" />
              <mxPoint x="330" y="149" />
            </Array>
          </mxGeometry>
        </mxCell>
        <mxCell id="6YbyLl6E95-JAUoDLxdt-45" value="1" style="text;html=1;align=center;verticalAlign=middle;resizable=0;points=[];autosize=1;strokeColor=none;fillColor=none;" parent="1" vertex="1">
          <mxGeometry x="170" y="120" width="30" height="30" as="geometry" />
        </mxCell>
        <mxCell id="6YbyLl6E95-JAUoDLxdt-46" value="N" style="text;html=1;align=center;verticalAlign=middle;resizable=0;points=[];autosize=1;strokeColor=none;fillColor=none;" parent="1" vertex="1">
          <mxGeometry x="460" y="120" width="30" height="30" as="geometry" />
        </mxCell>
        <mxCell id="C6tq6kPY9LNLTbtZW0UR-1" value="" style="edgeStyle=orthogonalEdgeStyle;rounded=0;orthogonalLoop=1;jettySize=auto;html=1;exitX=0.45;exitY=-0.025;exitDx=0;exitDy=0;exitPerimeter=0;" edge="1" parent="1" source="6YbyLl6E95-JAUoDLxdt-35">
          <mxGeometry relative="1" as="geometry">
            <mxPoint x="573" y="540" as="sourcePoint" />
            <mxPoint x="573" y="230" as="targetPoint" />
            <Array as="points">
              <mxPoint x="580" y="546" />
              <mxPoint x="580" y="440" />
              <mxPoint x="573" y="440" />
            </Array>
          </mxGeometry>
        </mxCell>
        <mxCell id="6YbyLl6E95-JAUoDLxdt-47" value="1" style="text;html=1;align=center;verticalAlign=middle;resizable=0;points=[];autosize=1;strokeColor=none;fillColor=none;" parent="1" vertex="1">
          <mxGeometry x="580" y="230" width="30" height="30" as="geometry" />
        </mxCell>
        <mxCell id="6YbyLl6E95-JAUoDLxdt-48" value="N" style="text;html=1;align=center;verticalAlign=middle;resizable=0;points=[];autosize=1;strokeColor=none;fillColor=none;" parent="1" vertex="1">
          <mxGeometry x="570" y="520" width="30" height="30" as="geometry" />
        </mxCell>
        <mxCell id="C6tq6kPY9LNLTbtZW0UR-3" value="Veterinário" style="swimlane;fontStyle=1;align=center;verticalAlign=top;childLayout=stackLayout;horizontal=1;startSize=26;horizontalStack=0;resizeParent=1;resizeParentMax=0;resizeLast=0;collapsible=1;marginBottom=0;whiteSpace=wrap;html=1;" vertex="1" parent="1">
          <mxGeometry y="410" width="160" height="120" as="geometry" />
        </mxCell>
        <mxCell id="C6tq6kPY9LNLTbtZW0UR-4" value="&lt;div&gt;idVeterinário (PK): INT&lt;/div&gt;&lt;div&gt;Especialidade: String&lt;/div&gt;&lt;div&gt;Nome: String&lt;/div&gt;" style="text;strokeColor=none;fillColor=none;align=left;verticalAlign=top;spacingLeft=4;spacingRight=4;overflow=hidden;rotatable=0;points=[[0,0.5],[1,0.5]];portConstraint=eastwest;whiteSpace=wrap;html=1;" vertex="1" parent="C6tq6kPY9LNLTbtZW0UR-3">
          <mxGeometry y="26" width="160" height="54" as="geometry" />
        </mxCell>
        <mxCell id="C6tq6kPY9LNLTbtZW0UR-5" value="" style="line;strokeWidth=1;fillColor=none;align=left;verticalAlign=middle;spacingTop=-1;spacingLeft=3;spacingRight=3;rotatable=0;labelPosition=right;points=[];portConstraint=eastwest;strokeColor=inherit;" vertex="1" parent="C6tq6kPY9LNLTbtZW0UR-3">
          <mxGeometry y="80" width="160" height="8" as="geometry" />
        </mxCell>
        <mxCell id="C6tq6kPY9LNLTbtZW0UR-6" value="enviarRelatório()" style="text;strokeColor=none;fillColor=none;align=left;verticalAlign=top;spacingLeft=4;spacingRight=4;overflow=hidden;rotatable=0;points=[[0,0.5],[1,0.5]];portConstraint=eastwest;whiteSpace=wrap;html=1;" vertex="1" parent="C6tq6kPY9LNLTbtZW0UR-3">
          <mxGeometry y="88" width="160" height="32" as="geometry" />
        </mxCell>
        <mxCell id="C6tq6kPY9LNLTbtZW0UR-7" value="" style="edgeStyle=orthogonalEdgeStyle;rounded=0;orthogonalLoop=1;jettySize=auto;html=1;exitX=1.013;exitY=0.833;exitDx=0;exitDy=0;exitPerimeter=0;entryX=0;entryY=0.5;entryDx=0;entryDy=0;" edge="1" parent="1" source="C6tq6kPY9LNLTbtZW0UR-4" target="6YbyLl6E95-JAUoDLxdt-36">
          <mxGeometry relative="1" as="geometry">
            <mxPoint x="290" y="610" as="sourcePoint" />
            <mxPoint x="303" y="400" as="targetPoint" />
            <Array as="points">
              <mxPoint x="480" y="481" />
            </Array>
          </mxGeometry>
        </mxCell>
      </root>
    </mxGraphModel>
  </diagram>
</mxfile>
